<svg width="64" height="64" viewBox="0 0 64 64" fill="none" xmlns="http://www.w3.org/2000/svg">
  <circle cx="32" cy="32" r="30" fill="#F1EBD9"/>
  <path d="M27.5 30.5c-3.2 3.1-7.4 5.9-11.4 5.6-4-.3-6.3-3.3-5.8-7.2.6-5 5.1-9.6 9.8-10.3 4.1-.6 7.3 1.1 7.6 4.4" stroke="#829078" stroke-width="2.7" stroke-linecap="round"/>
  <path d="M25.6 28.3c-1.5 4.5-3.2 9.1-5.5 13.2-1.4 2.5-3.3 5.1-6.1 5.7-1.7.4-3.1-.4-3.1-2 0-2.9 4.4-6.5 9.3-7 3.7-.4 7.6.8 11.1.6" stroke="#829078" stroke-width="2.7" stroke-linecap="round"/>
  <path d="M32 28c2.5-4.2 5.8-8.1 8.6-7.7 1.3.2 1.5 1.4.9 2.8-1.5 3.6-6.4 7-11.2 8.9-1.7 4.8-2 9.3-.5 11.4 1.1 1.6 3.1 1.3 5-.1" stroke="#829078" stroke-width="2.7" stroke-linecap="round"/>
  <path d="M40.2 25.2l7.2-4.1 7.2 4.1v6.6H40.2v-6.6z" stroke="#171717" stroke-width="1.2" stroke-linejoin="round"/>
  <path d="M46.8 33c1.2-3.6 1.7-6.5.8-8.2" stroke="#8A9B68" stroke-width="1" stroke-linecap="round"/>
  <path d="M47.7 27.1c-1.7-.1-3-1.8-3.1-3.5 1.8.1 3 1.7 3.1 3.5z" stroke="#8A9B68" stroke-width="1" stroke-linejoin="round"/>
  <path d="M49.2 25c1-1.7 2.7-2.5 4-2.3-.3 1.7-2 3-4 2.3z" stroke="#8A9B68" stroke-width="1" stroke-linejoin="round"/>
</svg>
