<svg width="640" height="640" viewBox="0 0 640 640" fill="none" xmlns="http://www.w3.org/2000/svg" role="img" aria-labelledby="title desc">
  <title id="title">Haven Haraya logo</title>
  <desc id="desc">Circular cream logo with sage Haven Haraya lettering, a simple home outline, and a small sprout.</desc>
  <circle cx="320" cy="320" r="286" fill="#F1EBD9"/>
  <path d="M268 314c-31 31-73 60-112 57-39-3-62-33-57-72 6-50 50-96 97-103 41-6 73 11 76 44" stroke="#829078" stroke-width="14" stroke-linecap="round"/>
  <path d="M249 280c-14 45-31 91-54 132-14 25-33 52-61 58-17 4-31-4-31-20 0-29 44-65 93-70 37-4 76 8 111 6" stroke="#829078" stroke-width="14" stroke-linecap="round"/>
  <path d="M315 270c25-42 58-81 86-77 13 2 15 14 9 28-15 36-64 70-112 89-17 48-20 93-5 114 11 16 31 13 50-1" stroke="#829078" stroke-width="14" stroke-linecap="round"/>
  <path d="M402 247l72-41 72 41v66H402v-66z" stroke="#171717" stroke-width="5" stroke-linejoin="round"/>
  <path d="M466 324c12-36 17-65 8-82" stroke="#8A9B68" stroke-width="4" stroke-linecap="round"/>
  <path d="M476 258c-17-1-30-18-31-35 18 1 30 17 31 35z" stroke="#8A9B68" stroke-width="4" stroke-linejoin="round"/>
  <path d="M492 239c10-17 27-25 40-23-3 17-20 30-40 23z" stroke="#8A9B68" stroke-width="4" stroke-linejoin="round"/>
  <path d="M476 285c15-10 32-9 41 0-8 13-26 18-41 0z" stroke="#8A9B68" stroke-width="4" stroke-linejoin="round"/>
  <text x="305" y="347" fill="#829078" font-family="Georgia, 'Times New Roman', serif" font-size="72">aven</text>
  <text x="296" y="430" fill="#829078" font-family="Georgia, 'Times New Roman', serif" font-size="70">araya</text>
  <text x="430" y="468" fill="#829078" font-family="Segoe UI, Arial, sans-serif" font-size="22">Est. 2026</text>
</svg>
